<svg width="428" height="471" viewBox="0 0 428 471" fill="none" xmlns="http://www.w3.org/2000/svg">
<path d="M92.4 2.09958C45.8667 10.4996 9.6 45.5662 2 89.2996C0.4 98.3663 0 117.166 0 188.766V277.033L3.33333 290.1C8.26667 309.833 20.9333 331.966 34.2667 344.233C50.4 359.033 67.4667 368.1 88.5333 372.766C91.8667 373.433 92.1333 373.966 91.3333 377.166C90.8 379.166 90.1333 387.7 89.7333 396.1C89.2 409.433 89.4667 412.5 92 419.966C104.4 456.766 145.067 477.7 186.8 468.9C207.733 464.366 228 449.166 236.933 431.166C241.467 422.1 242 419.833 242.4 408.233L242.933 395.433L250.533 385.566C254.667 380.1 258.4 375.033 258.933 374.233C259.6 373.166 271.067 372.766 295.6 372.766C337.333 372.766 343.467 371.7 364.667 361.433C393.867 347.3 414.267 323.166 424.133 290.766C427.2 280.766 427.2 280.366 427.733 187.966C428.133 87.4329 428 85.8329 420.933 68.0996C415.467 54.6329 409.2 45.2996 398 34.0996C380.267 16.2329 361.467 6.23291 337.733 2.09958C322.133 -0.700424 107.467 -0.700424 92.4 2.09958ZM337.333 34.6329C362.133 41.4329 384.133 62.4996 392.133 86.8996L395.333 96.7663V185.433V274.1L391.467 285.966C382.667 312.766 360.4 333.033 332.533 339.566C324.933 341.3 316.4 341.566 282 341.166L264 340.9C264 340.9 264.5 334.9 254.5 326.5C244.5 318.1 214.133 330.233 201.067 333.566C185.733 337.566 185.333 337.033 184 319.566C182.8 304.766 179.6 297.566 171.333 291.833C160.4 284.1 138.933 284.366 128.133 292.1C120 297.966 116.8 303.433 110.667 321.833C107.467 331.166 104.267 339.7 103.467 340.766C102.133 342.5 100.8 342.5 93.2 340.9C77.4667 337.566 59.7333 326.233 49.7333 313.3C42.1333 303.433 35.0667 287.833 33.3333 277.433C32.5333 272.233 32 235.966 32 185.433C32 114.766 32.2667 100.766 34 94.0996C42 63.2996 66.6667 39.5662 96.4 34.0996C109.733 31.5662 328.267 32.0996 337.333 34.6329ZM156.533 311.166C158.933 314.366 159.467 317.433 160 330.766C160.8 349.033 162.133 352.1 172 357.033C179.2 360.766 188.8 361.033 200.8 357.833C209.2 355.566 230.567 342.259 239 345C244.333 346.733 246 351.366 242.933 357.033C239.867 362.7 237.6 366.366 237.6 366.366L230 374.9C218.4 387.833 217.333 389.966 217.333 401.433C217.2 417.833 212.533 426.633 199.733 435.166C189.067 442.1 179.333 444.633 164.8 443.7C149.067 442.9 139.6 439.3 130.133 430.633C121.867 423.166 118 415.966 115.867 404.9C114.133 395.033 115.333 389.033 126.267 355.433C138.4 318.1 140.133 313.7 143.067 309.966C146.533 305.433 152.667 305.966 156.533 311.166Z" fill="black"/>
<path d="M336.667 141.166C333.733 142.499 319.333 149.566 304.667 157.033C281.6 168.633 277.6 171.166 275.467 175.033C272.667 180.233 273.2 184.766 276.933 189.166C280.4 193.033 335.6 221.699 341.333 222.366C352 223.833 358.4 210.366 350.933 202.366C349.333 200.633 339.867 195.299 330 190.633C320.133 185.966 312.133 181.833 312 181.433C312 181.033 320.133 176.633 330 171.699C339.867 166.766 349.733 161.166 352 159.299C357.6 154.499 357.467 149.299 351.467 143.299C346.4 138.233 344.267 137.966 336.667 141.166Z" fill="black"/>
<path d="M94.5333 143.967C90.2666 148.233 89.6 153.3 92.5333 158.633C93.7333 160.9 101.067 165.3 114.8 172.1C126 177.7 135.333 182.9 135.6 183.567C135.867 184.233 127.6 189.033 117.2 194.1C98 203.567 93.3333 207.3 93.3333 213.033C93.3333 217.167 96.6666 223.567 99.3333 224.633C106 227.167 111.333 225.3 141.867 209.433C166.133 196.9 173.333 192.5 175.2 189.433C178 184.5 177.2 178.9 172.933 175.033C168 170.5 106.533 140.1 102.267 140.1C99.8666 140.1 97.0666 141.433 94.5333 143.967Z" fill="black"/>
<path d="M212.667 194.634C195.867 198.767 185.867 215.034 195.467 222.634C200.4 226.5 202.4 226.1 207.2 220.634C211.867 215.3 219.2 213.434 225.733 215.967C230.8 217.967 230.267 221.3 224 227.434C213.867 237.434 213.867 248.367 224.133 255.567C231.333 260.5 232.667 263.167 229.333 266.1C226.533 268.634 219.2 269.3 211.6 267.567C206.667 266.5 206.667 266.5 203.867 272.634C202.4 276.1 201.333 279.834 201.6 281.034C202.8 287.034 221.333 291.3 232.8 288.234C247.867 284.1 258.133 269.167 254.667 256.234C253.333 251.434 245.6 242.634 241.333 241.167C240.267 240.9 242.267 237.967 246.533 233.434C258.4 221.167 259.067 210.767 248.533 201.567C240.267 194.367 225.733 191.567 212.667 194.634Z" fill="black"/>
</svg>
