<svg width="461" height="724" viewBox="0 0 461 724" fill="none" xmlns="http://www.w3.org/2000/svg">
<path d="M321.741 3.74734L317.906 7.28783V31.7762V56.412L322.331 60.8376C326.314 64.6731 327.642 65.2632 332.362 64.5256C335.608 63.9355 339.148 62.0178 341.214 59.805C344.312 56.117 344.459 54.6418 344.459 32.3662V8.61551L340.181 4.33742C334.575 -1.26834 327.347 -1.41586 321.741 3.74734Z" fill="black"/>
<path d="M206.381 56.1159C201.66 58.0337 198.414 63.492 198.414 69.2452C198.414 73.6708 200.332 76.1787 213.757 89.898C228.509 104.65 229.541 105.535 235.294 105.535C243.261 105.535 248.571 99.9294 248.571 91.8158C248.571 86.9476 247.096 85.0299 232.639 70.5729C216.264 54.1982 214.052 53.018 206.381 56.1159Z" fill="black"/>
<path d="M441.085 57.445C438.724 58.9202 430.906 66.1487 423.825 73.3772C411.876 85.6214 410.843 87.2441 410.843 92.5548C410.843 99.4882 415.121 104.209 422.35 105.684C428.546 106.864 431.939 104.651 448.166 88.4242C460.115 76.3276 461 74.9999 461 69.3942C461 64.526 460.115 62.3132 456.722 58.9202C451.706 53.9045 447.281 53.462 441.085 57.445Z" fill="black"/>
<path d="M317.168 89.4569C315.545 89.752 310.53 90.7846 306.104 91.6697C291.352 94.6201 274.387 103.914 262.586 115.716C243.408 134.893 233.819 157.759 233.819 184.312C233.819 200.835 236.327 211.751 243.261 225.913L248.276 236.092H167.14C77.448 236.092 77.5955 236.092 57.5328 245.681C38.7978 254.679 19.9152 273.119 10.6214 291.412C8.55616 295.542 5.31072 303.804 3.39296 309.852L0 320.916V416.804V512.692L3.98304 525.231C10.9165 546.326 20.6528 561.226 37.4701 575.83C48.3866 585.272 69.3344 595.598 83.0538 598.106C88.9546 599.286 94.1178 600.466 94.4128 600.761C94.7079 601.056 94.1178 604.892 92.9376 609.318C87.9219 627.905 88.9546 655.049 95.1504 671.719C104.002 695.027 125.392 713.762 151.208 720.843C164.19 724.383 191.038 724.383 204.315 720.843C227.476 714.647 244.736 700.485 250.046 683.52C251.964 677.177 252.702 672.014 252.112 668.768C251.522 665.375 251.817 663.015 253.439 661.245C260.078 653.574 261.996 643.69 258.75 632.773C257.275 627.905 257.422 626.725 260.225 623.184C262.733 620.087 263.323 617.284 263.323 609.318V599.286H310.235C348.737 599.286 358.916 598.844 368.062 596.778C396.829 590.287 425.595 567.569 438.577 541.016C441.085 536 444.625 526.559 446.543 520.068C449.936 508.266 449.936 508.119 449.936 415.329C449.936 329.915 449.789 321.653 447.281 312.802C440.347 288.166 425.153 267.219 408.04 258.957C403.172 256.45 399.042 254.089 399.042 253.499C399.042 253.057 402.435 247.598 406.418 241.55C420.432 220.602 424.858 206.44 424.71 182.985C424.563 170.445 423.825 165.282 420.58 155.398C409.958 122.796 380.602 96.5379 348.147 90.7846C336.936 88.7193 323.659 88.2768 317.168 89.4569ZM341.656 116.601C374.553 122.944 397.566 151.268 397.566 185.492C397.566 201.72 393.436 213.964 383.257 229.011C372.636 244.5 369.685 251.139 366.882 264.711L364.374 276.66H353.31H342.246L341.804 265.596C341.066 249.074 342.099 245.828 351.098 236.092C359.949 226.356 362.899 221.487 364.374 213.521C365.26 208.801 364.817 207.62 360.982 203.637C353.606 196.261 346.967 198.327 340.476 209.833C337.968 214.111 334.28 219.127 332.215 221.045L328.527 224.438L323.659 216.029C313.628 198.917 305.809 194.934 297.99 202.9C290.91 209.833 294.007 220.455 307.432 236.092C317.316 247.598 317.906 249.074 317.906 263.973V277.397H306.989C294.745 277.397 295.778 278.578 292.68 263.383C290.614 253.499 286.189 243.615 278.223 231.666C261.258 206.44 256.98 189.033 262.586 167.79C272.174 131.058 305.219 109.667 341.656 116.601ZM262.291 268.546C266.274 268.546 266.274 268.546 266.274 279.168C266.274 287.281 267.159 291.707 269.667 297.313C271.584 301.296 273.65 309.262 274.24 315.015C275.42 327.407 278.37 333.75 285.894 341.126C294.893 349.83 303.006 351.6 332.363 350.862C359.949 350.272 366.145 348.65 374.996 339.208C381.487 332.422 383.995 325.637 385.617 310.737C386.945 299.378 390.486 289.199 393.288 289.199C395.059 289.199 404.795 300.853 407.598 306.459C415.859 322.686 415.859 321.949 416.449 409.723C417.039 501.185 416.449 508.856 407.745 526.559C401.402 539.393 386.798 553.998 373.963 560.193C356.851 568.454 352.868 568.75 265.684 568.75H186.023L184.253 559.898C183.367 555.03 181.892 549.424 181.007 547.359C170.681 522.576 136.604 514.61 116.983 532.312C109.755 538.803 105.919 546.769 104.592 558.276C104.002 562.849 103.117 566.832 102.526 567.274C102.084 567.569 97.0682 566.979 91.7575 565.799C71.1047 561.521 51.337 546.326 42.4858 528.034C33.487 509.299 33.3395 509.004 32.897 417.541C32.6019 342.749 32.7494 333.16 35.1098 324.161C41.4531 298.935 56.9427 280.495 78.9232 271.939C88.512 268.251 133.211 267.366 262.291 268.546ZM360.686 307.934C360.686 313.835 356.113 322.096 351.835 324.161C347.115 326.522 311.562 326.817 307.284 324.456C303.744 322.539 300.203 314.573 300.203 308.377V303.951H330.445H360.686V307.934ZM152.241 553.555C156.519 558.423 157.256 561.226 158.584 578.191C160.207 600.466 157.846 599.139 199.3 599.581C217.887 599.729 233.967 600.319 234.999 600.909C238.097 602.974 237.212 613.448 233.672 616.399C226.591 622.299 224.821 632.921 230.279 637.494C231.459 638.379 232.344 641.772 232.344 644.87C232.344 649.443 231.459 651.066 227.771 653.721C221.87 657.999 220.542 661.687 222.903 669.211C224.525 674.521 224.378 675.849 222.165 679.685C216.854 688.241 195.759 696.354 178.794 696.354C169.796 696.354 154.453 692.961 147.815 689.421C119.639 674.816 111.525 642.215 125.835 599.729C129.67 588.075 132.03 577.896 132.768 569.93C133.948 555.325 136.899 550.31 144.422 550.31C147.52 550.31 150.323 551.49 152.241 553.555Z" fill="black"/>
<path d="M142.209 373.728C124.212 380.514 113 394.233 110.64 412.526C109.902 417.984 110.197 421.23 111.968 424.475C114.623 429.638 116.836 430.818 124.507 430.818C131.588 430.818 134.538 427.72 137.194 417.394C141.472 400.872 156.666 394.381 167.878 404.117C171.418 407.363 173.484 411.051 175.254 417.394C178.352 428.458 182.335 431.556 191.333 430.376C202.25 428.901 205.495 419.459 200.627 403.38C195.021 385.235 178.942 373.286 158.141 372.253C151.503 371.958 145.455 372.548 142.209 373.728Z" fill="black"/>
<path d="M293.565 374.318C282.796 378.006 268.781 392.168 265.684 402.79C260.373 420.935 264.798 430.818 278.075 430.818C283.238 430.818 287.959 426.688 289.287 420.935C292.09 407.805 299.613 399.839 309.202 399.839C320.413 399.839 326.609 405.445 329.855 418.279C332.068 427.13 336.051 430.818 343.279 430.818C347.41 430.818 350.065 429.786 352.868 426.983C356.408 423.442 356.556 422.41 355.966 413.411C354.786 397.184 346.967 385.53 332.363 377.711C320.856 371.515 305.514 370.188 293.565 374.318Z" fill="black"/>
<path d="M170.681 469.91C161.387 477.728 163.452 487.022 177.909 501.626C187.203 511.215 202.398 519.329 215.822 522.132C240.163 527.147 268.339 519.919 286.631 503.839C300.793 491.152 305.366 478.613 298.138 471.385C290.319 463.714 281.616 465.189 273.65 475.81C268.191 483.039 261.258 488.35 252.259 492.185C243.998 495.726 224.968 495.726 215.084 492.333C206.971 489.53 194.579 479.498 191.186 473.155C187.203 465.632 177.467 464.156 170.681 469.91Z" fill="black"/>
</svg>
