<svg width="524" height="363" viewBox="0 0 524 363" fill="none" xmlns="http://www.w3.org/2000/svg">
<path d="M307.023 0.196785C295.957 0.863452 296.623 -4.06988 296.623 83.9301C296.623 176.197 294.89 167.797 313.957 167.797C324.49 167.797 326.49 167.397 328.09 165.263C329.69 162.997 329.957 149.797 329.957 83.7968C329.957 10.3301 329.823 4.73012 327.69 2.86345C325.023 0.596785 316.89 -0.469882 307.023 0.196785Z" fill="black"/>
<path d="M6.09006 3.92893C3.29006 7.3956 3.29006 8.59561 3.29006 84.4623C3.29006 175.929 1.55673 167.796 20.3567 167.796C38.8901 167.796 37.9567 169.796 37.9567 129.529V96.4623H74.6234H111.29V129.529C111.29 169.796 110.357 167.796 128.89 167.796C147.69 167.796 145.957 175.929 145.957 84.8623C145.957 18.8623 145.69 7.7956 143.957 4.46226L141.823 0.462263H128.623C110.49 0.462263 111.29 -1.27106 111.29 35.3956V64.4623H75.4234C43.9567 64.4623 39.4234 64.1956 38.7567 62.3289C38.3567 61.1289 37.9567 47.7956 37.9567 32.5956C37.9567 -1.13773 38.7567 0.462263 20.8901 0.462263C9.4234 0.462263 8.62339 0.595597 6.09006 3.92893Z" fill="black"/>
<path d="M355.557 2.59622L352.623 4.59622V83.7962C352.623 151.93 352.89 163.263 354.623 164.863C359.557 169.796 380.357 169.263 383.957 164.063C385.69 161.53 385.957 150.463 385.957 82.9962C385.957 8.99622 385.823 4.72955 383.557 2.72955C380.09 -0.337116 359.957 -0.470449 355.557 2.59622Z" fill="black"/>
<path d="M210.357 41.7969C194.09 45.1302 176.49 59.2635 169.023 75.1302C147.823 120.197 177.29 169.797 225.29 169.797C247.957 169.797 270.623 156.464 279.157 138.064C283.69 128.33 282.49 127.13 266.757 127.13C254.757 127.13 254.357 127.264 250.49 131.264C244.623 137.53 234.623 141.797 225.957 141.664C209.157 141.664 197.423 132.73 194.49 117.93L193.69 113.797H236.89C268.757 113.797 280.49 113.397 281.69 112.197C285.69 108.197 282.357 83.7969 276.357 71.9302C272.757 64.9969 261.423 52.9969 254.223 48.8635C241.69 41.3969 225.423 38.8635 210.357 41.7969ZM234.357 68.9969C237.157 70.0635 240.757 71.9302 242.223 73.3969C246.09 76.7302 252.757 87.2635 251.823 88.5969C250.757 90.3302 195.29 90.0635 195.29 88.4635C195.29 85.1302 201.023 76.3302 205.157 73.1302C213.023 67.1302 224.49 65.5302 234.357 68.9969Z" fill="black"/>
<path d="M447.956 42.063C432.223 44.9963 414.89 57.5297 406.49 71.9297C398.49 85.5297 395.823 106.33 399.956 122.463C405.69 144.33 422.49 161.263 444.49 167.396C455.69 170.463 463.023 170.463 475.69 167.13C494.756 162.33 509.156 150.596 517.29 133.53C540.223 84.7297 500.356 32.063 447.956 42.063ZM471.69 71.663C485.023 76.463 492.89 88.7297 493.156 104.863C493.423 129.53 473.823 145.263 450.623 138.996C443.556 137.13 432.49 125.796 430.223 118.33C428.223 111.396 428.09 98.9964 430.223 92.1964C432.223 85.3963 441.156 75.3963 447.956 72.3297C454.223 69.3963 464.49 69.1297 471.69 71.663Z" fill="black"/>
<path d="M62.6234 199.664C53.8234 203.664 55.69 198.997 12.6234 316.464C1.69004 346.464 -0.843297 354.597 0.223369 357.264C1.42337 360.464 6.49003 361.797 17.4234 361.797C29.69 361.797 32.2234 359.797 36.6234 346.33C38.2234 341.264 40.7567 333.93 42.2234 330.064L44.7567 323.13H76.49H108.223L113.957 339.93C117.157 349.13 120.89 357.797 122.357 359.264C125.957 362.597 145.023 362.997 149.69 359.664C155.023 355.93 155.023 355.93 127.557 281.797C118.757 257.93 109.29 232.197 106.623 224.464C100.89 208.464 96.89 202.33 90.49 199.664C84.89 197.264 67.9567 197.264 62.6234 199.664ZM86.49 262.197C91.5567 276.197 95.9567 288.597 96.3567 289.397C96.7567 290.73 92.2234 291.13 76.6234 291.13C61.0234 291.13 56.49 290.73 56.89 289.397C66.89 260.864 75.9567 236.464 76.49 236.464C77.0234 236.464 81.4234 248.064 86.49 262.197Z" fill="black"/>
<path d="M176.757 201.264C173.957 204.73 173.957 205.93 173.957 279.397C173.957 353.93 174.223 357.93 178.49 360.73C179.29 361.264 185.157 361.797 191.423 361.797C209.823 361.797 207.957 370.864 207.957 279.797C207.957 188.597 209.823 197.797 191.157 197.797C180.09 197.797 179.29 197.93 176.757 201.264Z" fill="black"/>
</svg>
