<svg width="1004" height="437" viewBox="0 0 1004 437" fill="none" xmlns="http://www.w3.org/2000/svg">
<path d="M96.4 0.8268C51.4667 8.56013 14.9333 41.6268 3.06667 85.0935C0 96.1601 0 96.5601 0 188.827C0 274.56 0.133333 282.16 2.4 290.027C12.8 326.427 38.5333 354.027 75.0667 368.027L84.6667 371.76V390.96C84.6667 414.827 86 420.693 93.2 428.16C102 437.36 112.8 438.827 124.8 432.827C127.467 431.36 138.8 421.76 150 411.227C161.2 400.693 174.267 388.56 179.067 384.16L187.867 376.16L248.533 375.36C318.267 374.56 319.6 374.293 344 362.293C372.8 348.027 393.467 323.76 402.933 293.493L406.667 281.493V188.827C406.667 96.9601 406.667 96.0268 403.733 85.8935C398 66.1601 390.267 52.2935 376.933 37.8935C362.4 22.2935 340.8 9.36013 318.667 3.2268C308.133 0.293467 307.2 0.160133 205.333 0.0268002C148.933 -0.106533 99.8667 0.293467 96.4 0.8268ZM308 33.2268C313.2 34.4268 322.4 37.8935 328.667 40.9601C344 48.5601 359.333 63.6268 366.533 78.1601C375.067 95.6268 375.333 99.2268 375.333 190.027C375.333 266.427 375.2 271.627 372.667 281.36C368.8 296.427 362.933 306.693 351.333 318.293C340.933 328.827 331.6 334.96 318.4 339.76C310.933 342.56 308.267 342.693 246 343.493C165.333 344.293 176.533 340.827 139.2 377.627C127.867 388.96 118 397.76 117.6 397.227C117.067 396.827 116.667 385.76 116.667 372.827C116.667 356.16 116.133 348.693 115.067 347.093C114 345.76 108.267 343.893 100 342.293C80.6667 338.293 69.2 332.293 55.8667 318.96C47.8667 310.96 43.8667 305.627 40.1333 298.16C31.3333 279.893 31.2 278.693 31.6 182.96C32 97.6268 32 97.4935 35.0667 88.8268C40 75.2268 47.7333 63.3601 57.8667 53.8935C71.7333 40.9601 86.6667 34.0268 106 31.3601C110 30.8268 155.067 30.5601 206 30.6935C286.667 30.9601 299.867 31.3601 308 33.2268Z" fill="black"/>
<path d="M122.667 146.027C104.133 154.56 100.4 178.027 115.333 192.56C124.933 201.76 142.4 201.76 152.4 192.427C164 181.627 163.333 158.827 151.2 149.893C142.133 143.227 131.867 141.76 122.667 146.027Z" fill="black"/>
<path d="M275.333 145.626C264.933 150.159 259.333 159.093 259.333 171.493C259.333 193.493 280.4 206.159 300.133 195.893C310.4 190.559 316.533 174.559 312.667 162.826C307.733 147.893 289.6 139.493 275.333 145.626Z" fill="black"/>
<path d="M157.867 225.494C149.067 230.294 150.267 239.627 161.467 251.494C174.267 265.227 189.6 271.494 210 271.494C229.733 271.494 244.133 266.027 257.067 253.494C269.467 241.494 271.6 234.161 264.8 227.361C258.533 221.094 254.267 222.027 244 231.494C233.2 241.627 225.733 244.961 212.667 245.761C198.533 246.694 189.733 243.227 177.733 232.027C168.133 222.961 164.667 221.761 157.867 225.494Z" fill="black"/>
<path d="M787.067 45.8941C776 46.5607 776.667 41.6274 776.667 129.627C776.667 221.894 774.933 213.494 794 213.494C804.533 213.494 806.533 213.094 808.133 210.961C809.733 208.694 810 195.494 810 129.494C810 56.0274 809.867 50.4274 807.733 48.5607C805.067 46.2941 796.933 45.2274 787.067 45.8941Z" fill="black"/>
<path d="M486.134 49.6262C483.334 53.0929 483.334 54.2929 483.334 130.16C483.334 221.626 481.6 213.493 500.4 213.493C518.934 213.493 518 215.493 518 175.226V142.16H554.667H591.334V175.226C591.334 215.493 590.4 213.493 608.934 213.493C627.734 213.493 626 221.626 626 130.56C626 64.5595 625.734 53.4929 624 50.1595L621.867 46.1595H608.667C590.534 46.1595 591.334 44.4262 591.334 81.0929V110.16H555.467C524 110.16 519.467 109.893 518.8 108.026C518.4 106.826 518 93.4929 518 78.2929C518 44.5595 518.8 46.1595 500.934 46.1595C489.467 46.1595 488.667 46.2929 486.134 49.6262Z" fill="black"/>
<path d="M835.6 48.2935L832.667 50.2935V129.493C832.667 197.627 832.933 208.96 834.667 210.56C839.6 215.493 860.4 214.96 864 209.76C865.733 207.227 866 196.16 866 128.693C866 54.6935 865.867 50.4268 863.6 48.4268C860.133 45.3602 840 45.2268 835.6 48.2935Z" fill="black"/>
<path d="M690.4 87.4941C674.133 90.8275 656.533 104.961 649.067 120.827C627.867 165.894 657.333 215.494 705.333 215.494C728 215.494 750.667 202.161 759.2 183.761C763.733 174.027 762.533 172.827 746.8 172.827C734.8 172.827 734.4 172.961 730.533 176.961C724.667 183.227 714.667 187.494 706 187.361C689.2 187.361 677.467 178.427 674.533 163.627L673.733 159.494H716.933C748.8 159.494 760.533 159.094 761.733 157.894C765.733 153.894 762.4 129.494 756.4 117.627C752.8 110.694 741.467 98.6941 734.267 94.5608C721.733 87.0941 705.467 84.5608 690.4 87.4941ZM714.4 114.694C717.2 115.761 720.8 117.627 722.267 119.094C726.133 122.427 732.8 132.961 731.867 134.294C730.8 136.027 675.333 135.761 675.333 134.161C675.333 130.827 681.067 122.027 685.2 118.827C693.067 112.827 704.533 111.227 714.4 114.694Z" fill="black"/>
<path d="M928 87.7603C912.267 90.6936 894.933 103.227 886.533 117.627C878.533 131.227 875.867 152.027 880 168.16C885.733 190.027 902.533 206.96 924.533 213.094C935.733 216.16 943.067 216.16 955.733 212.827C974.8 208.027 989.2 196.294 997.333 179.227C1020.27 130.427 980.4 77.7603 928 87.7603ZM951.733 117.36C965.067 122.16 972.933 134.427 973.2 150.56C973.467 175.227 953.867 190.96 930.667 184.694C923.6 182.827 912.533 171.494 910.267 164.027C908.267 157.094 908.133 144.694 910.267 137.894C912.267 131.094 921.2 121.094 928 118.027C934.267 115.094 944.533 114.827 951.733 117.36Z" fill="black"/>
<path d="M542.667 245.361C533.867 249.361 535.733 244.694 492.667 362.161C481.733 392.161 479.2 400.294 480.267 402.961C481.467 406.161 486.533 407.494 497.467 407.494C509.733 407.494 512.267 405.494 516.667 392.028C518.267 386.961 520.8 379.628 522.267 375.761L524.8 368.828H556.533H588.267L594 385.628C597.2 394.828 600.933 403.494 602.4 404.961C606 408.294 625.067 408.694 629.733 405.361C635.067 401.628 635.067 401.628 607.6 327.494C598.8 303.628 589.333 277.894 586.667 270.161C580.933 254.161 576.933 248.028 570.533 245.361C564.933 242.961 548 242.961 542.667 245.361ZM566.533 307.894C571.6 321.894 576 334.294 576.4 335.094C576.8 336.428 572.267 336.828 556.667 336.828C541.067 336.828 536.533 336.428 536.933 335.094C546.933 306.561 556 282.161 556.533 282.161C557.067 282.161 561.467 293.761 566.533 307.894Z" fill="black"/>
<path d="M656.8 246.961C654 250.427 654 251.627 654 325.094C654 399.627 654.267 403.627 658.533 406.427C659.333 406.961 665.2 407.494 671.467 407.494C689.867 407.494 688 416.561 688 325.494C688 234.294 689.867 243.494 671.2 243.494C660.133 243.494 659.333 243.627 656.8 246.961Z" fill="black"/>
</svg>
