<svg width="407" height="437" viewBox="0 0 407 437" fill="none" xmlns="http://www.w3.org/2000/svg">
<path d="M96.4 0.8268C51.4667 8.56013 14.9333 41.6268 3.06667 85.0935C0 96.1601 0 96.5601 0 188.827C0 274.56 0.133333 282.16 2.4 290.027C12.8 326.427 38.5333 354.027 75.0667 368.027L84.6667 371.76V390.96C84.6667 414.827 86 420.693 93.2 428.16C102 437.36 112.8 438.827 124.8 432.827C127.467 431.36 138.8 421.76 150 411.227C161.2 400.693 174.267 388.56 179.067 384.16L187.867 376.16L248.533 375.36C318.267 374.56 319.6 374.293 344 362.293C372.8 348.027 393.467 323.76 402.933 293.493L406.667 281.493V188.827C406.667 96.9601 406.667 96.0268 403.733 85.8935C398 66.1601 390.267 52.2935 376.933 37.8935C362.4 22.2935 340.8 9.36013 318.667 3.2268C308.133 0.293467 307.2 0.160133 205.333 0.0268002C148.933 -0.106533 99.8667 0.293467 96.4 0.8268ZM308 33.2268C313.2 34.4268 322.4 37.8935 328.667 40.9601C344 48.5601 359.333 63.6268 366.533 78.1601C375.067 95.6268 375.333 99.2268 375.333 190.027C375.333 266.427 375.2 271.627 372.667 281.36C368.8 296.427 362.933 306.693 351.333 318.293C340.933 328.827 331.6 334.96 318.4 339.76C310.933 342.56 308.267 342.693 246 343.493C165.333 344.293 176.533 340.827 139.2 377.627C127.867 388.96 118 397.76 117.6 397.227C117.067 396.827 116.667 385.76 116.667 372.827C116.667 356.16 116.133 348.693 115.067 347.093C114 345.76 108.267 343.893 100 342.293C80.6667 338.293 69.2 332.293 55.8667 318.96C47.8667 310.96 43.8667 305.627 40.1333 298.16C31.3333 279.893 31.2 278.693 31.6 182.96C32 97.6268 32 97.4935 35.0667 88.8268C40 75.2268 47.7333 63.3601 57.8667 53.8935C71.7333 40.9601 86.6667 34.0268 106 31.3601C110 30.8268 155.067 30.5601 206 30.6935C286.667 30.9601 299.867 31.3601 308 33.2268Z" fill="black"/>
<path d="M122.667 146.027C104.133 154.56 100.4 178.027 115.333 192.56C124.933 201.76 142.4 201.76 152.4 192.427C164 181.627 163.333 158.827 151.2 149.893C142.133 143.227 131.867 141.76 122.667 146.027Z" fill="black"/>
<path d="M275.333 145.626C264.933 150.159 259.333 159.093 259.333 171.493C259.333 193.493 280.4 206.159 300.133 195.893C310.4 190.559 316.533 174.559 312.667 162.826C307.733 147.893 289.6 139.493 275.333 145.626Z" fill="black"/>
<path d="M157.867 225.494C149.067 230.294 150.267 239.627 161.467 251.494C174.267 265.227 189.6 271.494 210 271.494C229.733 271.494 244.133 266.027 257.067 253.494C269.467 241.494 271.6 234.161 264.8 227.361C258.533 221.094 254.267 222.027 244 231.494C233.2 241.627 225.733 244.961 212.667 245.761C198.533 246.694 189.733 243.227 177.733 232.027C168.133 222.961 164.667 221.761 157.867 225.494Z" fill="black"/>
</svg>
